# AST/ASF file generated using VICON BodyLanguage
# -----------------------------------------------
:version 1.10
:name VICON
:units
  mass 1.0
  length 0.45
  angle deg
:documentation
   .ast/.asf automatically generated from VICON data using
   VICON BodyBuilder and BodyLanguage model FoxedUp or BRILLIANT.MOD
:root
   order TX TY TZ RX RY RZ
   axis XYZ
   position 0 0 0  
   orientation 0 0 0 
:bonedata
  begin
     id 1 
     name lhipjoint
     direction 0.78388 -0.462562 0.414208 
     length 3.01181 
     axis 0 0 0  XYZ
  end
  begin
     id 2 
     name lfemur
     direction 0.34202 -0.939693 0  
     length 6.04673  
     axis 0 0 20  XYZ
    dof rx ry rz
    limits (-160.0 20.0)
           (-70.0 70.0)
           (-60.0 70.0)
  end
  begin
     id 3 
     name ltibia
     direction 0.34202 -0.939693 0   
     length 7.211   
     axis 0 0 20   XYZ
    dof rx
    limits (-10.0 170.0)
  end
  begin
     id 4 
     name lfoot
     direction 0.121887 -0.334882 0.934344   
     length 2.13567   
     axis -90 7.62852e-016 20   XYZ
    dof rx rz
    limits (-45.0 90.0)
           (-70.0 20.0)
  end
  begin
     id 5 
     name ltoes
     direction 1.53555e-011 -4.2179e-011 1   
     length 1.05957   
     axis -90 7.62852e-016 20   XYZ
    dof rx
    limits (-90.0 20.0)
  end
  begin
     id 6 
     name rhipjoint
     direction -0.769387 -0.475875 0.426129   
     length 2.92756  
     axis 0 0 0  XYZ 
  end
  begin
     id 7 
     name rfemur
     direction -0.34202 -0.939693 0   
     length 6.35468   
     axis 0 0 -20   XYZ
    dof rx ry rz
    limits (-160.0 20.0)
           (-70.0 70.0)
           (-70.0 60.0)
  end
  begin
     id 8 
     name rtibia
     direction -0.34202 -0.939693 0   
     length 7.37886   
     axis 0 0 -20   XYZ
    dof rx
    limits (-10.0 170.0)
 end
 begin
     id 9 
     name rfoot
     direction -0.101763 -0.279592 0.954711   
     length 2.21478  
     axis -90 -7.62852e-016 -20   XYZ
    dof rx rz
    limits (-45.0 90.0)
           (-20.0 70.0)
  end
  begin
     id 10 
     name rtoes
     direction -1.53494e-011 -4.21851e-011 1   
     length 1.10506   
     axis -90 -7.62852e-016 -20   XYZ
    dof rx
    limits (-90.0 20.0)
  end
  begin
     id 11 
     name lowerback
     direction 0.00747405 0.999267 0.0375481   
     length 2.13259   
     axis 0 0 0   XYZ
    dof rx ry rz
    limits (-20.0 45.0)
           (-30.0 30.0)
           (-30.0 30.0)
  end
  begin
     id 12 
     name upperback
     direction 0.00661626 0.996177 0.0871029   
     length 2.10528   
     axis 0 0 0   XYZ
    dof rx ry rz
    limits (-20.0 45.0)
           (-30.0 30.0)
           (-30.0 30.0)
  end
  begin
     id 13 
     name thorax
     direction 0.00320659 0.997679 0.0680167   
     length 2.11338   
     axis 0 0 0   XYZ
    dof rx ry rz
    limits (-20.0 45.0)
           (-30.0 30.0)
           (-30.0 30.0)
  end
  begin
     id 14 
     name lowerneck
     direction 0.0374841 0.973033 0.227602   
     length 1.42765   
     axis 0 0 0   XYZ
    dof rx ry rz
    limits (-20.0 45.0)
           (-30.0 30.0)
           (-30.0 30.0)
  end
  begin
     id 15 
     name upperneck
     direction 0.00481585 0.989155 -0.146795   
     length 1.47593   
     axis 0 0 0   XYZ
    dof rx ry rz
    limits (-20.0 45.0)
           (-30.0 30.0)
           (-30.0 30.0)
  end
  begin
     id 16
     name head
     direction -0.00292522 0.997206 -0.0746423  
     length 1.48116  
     axis 0 0 0   XYZ
    dof rx ry rz
    limits (-20.0 45.0)
           (-30.0 30.0)
           (-30.0 30.0)
  end
  begin
     id 17 
     name lclavicle
     direction 0.951444 0.305606 0.0368784  
     length 3.01855  
     axis 0 0 0   XYZ
    dof ry rz
    limits (-20.0 10.0)
           (0.0 20.0)
  end
  begin
     id 18 
     name lhumerus
     direction 1 -4.48977e-011 2.61664e-027   
     length 5.52731   
     axis 180 -30 -90   XYZ
    dof rx ry rz
    limits (-60.0 90.0)
           (-90.0 90.0)
           (-90.0 90.0)
  end
  begin
     id 19
     name lradius
     direction 1 -4.48944e-011 8.22157e-027   
     length 3.11059   
     axis 180 -30 -90   XYZ
    dof rx
    limits (-10.0 170.0)
  end
  begin
     id 20
     name lwrist
     direction 1 -4.48976e-011 1.5779e-026   
     length 1.5553   
     axis -1.15221e-014 90 90   XYZ
    dof ry
    limits (-180.0 0.0)
 end
  begin
     id 21 
     name lhand
     direction 1 -4.49025e-011 3.1558e-026   
     length 0.419626   
     axis -2.01367e-014 90 90   XYZ
    dof rx rz
    limits (-90.0 90.0)
           (-45.0 45.0)
  end
  begin
     id 22 
     name lfingers
     direction 1 -4.4904e-011 6.31161e-026   
     length 0.338313   
     axis -4.02734e-014 90 90   XYZ
    dof rx
    limits (0.0 90.0)
  end
  begin
     id 23
     name lthumb
     direction 0.707107 -6.35004e-011 0.707107   
     length 0.485752   
     axis -90 45 2.85299e-015   XYZ
    dof rx rz
    limits (-45.0 45.0)
           (-45.0 45.0)
  end
  begin
     id 24 
     name rclavicle
     direction -0.968876 0.223791 0.105816   
     length 3.04177  
     axis 0 0 0   XYZ 
    dof ry rz
    limits (-10.0 20.0)
           (-20.0 0.0)
  end
  begin
     id 25 
     name rhumerus
     direction -1 -4.48962e-011 -1.01384e-027  
     length 5.25396   
     axis 180 30 90   XYZ
    dof rx ry rz
    limits (-90.0 60.0)
           (-90.0 90.0)
           (-90.0 90.0)
  end
  begin
     id 26 
     name rradius
     direction -1 -4.48955e-011 8.88542e-027   
     length 3.10567   
     axis 180 30 90   XYZ
    dof rx
    limits (-10.0 170.0)
  end
  begin
     id 27 
     name rwrist
     direction -1 -4.48994e-011 1.5779e-026   
     length 1.55283   
     axis -1.15221e-014 -90 -90   XYZ
    dof ry
    limits (-180.0 0.0)
  end
  begin
     id 28
     name rhand
     direction -1 -4.48891e-011 3.1558e-026   
     length 0.498676   
     axis -2.01367e-014 -90 -90   XYZ
    dof rx rz
    limits (-90.0 90.0)
           (-45.0 45.0)
  end
  begin
     id 29
     name rfingers
     direction -1 -4.48972e-011 6.31161e-026   
     length 0.402045   
     axis -4.02734e-014 -90 -90   XYZ
    dof rx
    limits (0.0 90.0)
  end
  begin
     id 30
     name rthumb
     direction -0.707107 -6.34849e-011 0.707107   
     length 0.577259   
     axis -90 -45 -2.85299e-015   XYZ
    dof rx rz
    limits (-45.0 45.0)
           (-45.0 45.0)
  end
:hierarchy
  begin
    root lhipjoint rhipjoint lowerback
    lhipjoint lfemur
    lfemur ltibia
    ltibia lfoot
    lfoot ltoes
    rhipjoint rfemur
    rfemur rtibia
    rtibia rfoot
    rfoot rtoes
    lowerback upperback
    upperback thorax
    thorax lowerneck lclavicle rclavicle
    lowerneck upperneck
    upperneck head
    lclavicle lhumerus
    lhumerus lradius
    lradius lwrist
    lwrist lhand lthumb
    lhand lfingers
    rclavicle rhumerus
    rhumerus rradius
    rradius rwrist
    rwrist rhand rthumb
    rhand rfingers
  end

#!OML:ASF H:\Pregnant\Project 1\Capture day 1\Session 1\femalepreg.ASF
:FULLY-SPECIFIED
:DEGREES
106
root 20.3128 15.3971 22.7131 205.746 -10.2106 -183.106
lowerback -19.2732 2.47289 -1.12931
upperback -6.55001 2.51323 -1.15749
thorax 3.71509 0.798455 -0.0654071
lowerneck -18.0602 2.23934 3.26968
upperneck 26.3909 1.27832 0.172083
head 11.6504 0.611947 -0.361251
rclavicle -1.96051e-014 1.15295e-014
rhumerus -36.6383 -3.96609 -81.4668
rradius 26.1399
rwrist -9.4195
rhand -20.3903 -21.4711
rfingers 7.12502
rthumb 5.96303 -51.3672
lclavicle -1.96051e-014 1.15295e-014
lhumerus -41.1507 5.91148 70.1431
lradius 26.4484
lwrist 43.269
lhand -32.998 -4.93082
lfingers 7.12502
lthumb -6.21232 24.9581
rfemur -41.7979 3.2726 19.1736
rtibia 43.9503
rfoot -20.0122 -20.2107
rtoes -14.3392
lfemur -29.998 -4.87749 -25.5001
ltibia 22.7455
lfoot -15.6364 10.8494
ltoes -9.06928
107
root 20.3301 15.4022 22.7255 205.717 -9.44823 -182.969
lowerback -19.06 2.48414 -0.881331
upperback -6.56888 2.47524 -1.11325
thorax 3.59485 0.778633 -0.172914
lowerneck -17.8969 2.55349 3.62536
upperneck 26.1676 1.70217 -0.0440538
head 11.5467 0.814315 -0.436655
rclavicle -3.24267e-015 -1.51076e-014
rhumerus -36.5111 -3.36654 -81.8712
rradius 26.3788
rwrist -9.40917
rhand -20.4727 -21.6165
rfingers 7.12502
rthumb 5.88344 -51.5148
lclavicle -3.24267e-015 -1.51076e-014
lhumerus -41.2554 5.96219 70.5152
lradius 25.7869
lwrist 42.7197
lhand -32.4427 -4.63326
lfingers 7.12502
lthumb -5.6762 25.2707
rfemur -41.8493 4.2597 18.9721
rtibia 43.6939
rfoot -19.7257 -20.3215
rtoes -14.3501
lfemur -30.0187 -4.78388 -25.3927
ltibia 22.8511
lfoot -15.6363 11.5163
ltoes -9.00075
108
root 20.347 15.4065 22.7388 205.678 -8.69322 -182.847
lowerback -18.8132 2.48527 -0.643225
upperback -6.58335 2.42902 -1.06888
thorax 3.46097 0.755519 -0.277055
lowerneck -17.7172 2.88147 3.99457
upperneck 25.9382 2.14673 -0.275444
head 11.4417 1.02586 -0.517208
rclavicle -1.2424e-015 5.96354e-015
rhumerus -36.3829 -2.73995 -82.2845
rradius 26.6568
rwrist -9.44555
rhand -20.6448 -21.7866
rfingers 7.12502
rthumb 5.71725 -51.6895
lclavicle -1.2424e-015 5.96354e-015
lhumerus -41.3488 5.96087 70.946
lradius 25.1735
lwrist 42.1738
lhand -31.7887 -4.29319
lfingers 7.12502
lthumb -5.04467 25.6268
rfemur -41.9161 5.21603 18.7662
rtibia 43.4875
rfoot -19.4461 -20.4284
rtoes -14.3538
lfemur -30.0202 -4.68585 -25.3048
ltibia 22.9525
lfoot -15.6391 12.1674
ltoes -8.92546
109
root 20.3634 15.4103 22.7527 205.636 -7.95227 -182.747
lowerback -18.5562 2.47578 -0.418289
upperback -6.58903 2.37495 -1.02965
thorax 3.33023 0.729123 -0.380671
lowerneck -17.5175 3.22114 4.38616
upperneck 25.6939 2.60947 -0.529744
head 11.332 1.24566 -0.60759
rclavicle 2.79044e-014 -1.98785e-015
rhumerus -36.2391 -2.08565 -82.7098
rradius 26.9693
rwrist -9.53839
rhand -20.9102 -21.9642
rfingers 7.12502
rthumb 5.46105 -51.8739
lclavicle 2.79044e-014 -1.98785e-015
lhumerus -41.4215 5.90318 71.4326
lradius 24.619
lwrist 41.629
lhand -31.0394 -3.94349
lfingers 7.12502
lthumb -4.32118 25.9924
rfemur -42.005 6.10682 18.5623
rtibia 43.3281
rfoot -19.1901 -20.5161
rtoes -14.3006
lfemur -30.0069 -4.57989 -25.245
ltibia 23.0381
lfoot -15.6371 12.789
ltoes -8.86102
110
root 20.3791 15.4135 22.7663 205.584 -7.22208 -182.674
lowerback -18.3011 2.45521 -0.211247
upperback -6.57108 2.31558 -0.995361
thorax 3.22439 0.701751 -0.479751
lowerneck -17.3213 3.57334 4.7954
upperneck 25.4362 3.09346 -0.807942
head 11.2235 1.47507 -0.70649
rclavicle 2.19657e-014 -5.56597e-015
rhumerus -36.0627 -1.40727 -83.1407
rradius 27.3164
rwrist -9.69044
rhand -21.256 -22.1167
rfingers 7.12502
rthumb 5.12713 -52.0347
lclavicle 2.19657e-014 -5.56597e-015
lhumerus -41.4466 5.8034 71.9729
lradius 24.1162
lwrist 41.0694
lhand -30.2105 -3.56772
lfingers 7.12502
lthumb -3.52073 26.383
rfemur -42.0992 6.91412 18.3618
rtibia 43.208
rfoot -18.9611 -20.5724
rtoes -14.2105
lfemur -29.9572 -4.47386 -25.2178
ltibia 23.0906
lfoot -15.6248 13.3889
ltoes -8.80877
111
root 20.3941 15.4163 22.7788 205.526 -6.51056 -182.624
lowerback -18.0615 2.42146 -0.020056
upperback -6.53377 2.24614 -0.964342
thorax 3.14587 0.670603 -0.574395
lowerneck -17.1174 3.93859 5.22504
upperneck 25.1643 3.59916 -1.11278
head 11.1144 1.71405 -0.81537
rclavicle 3.31473e-014 -1.19271e-015
rhumerus -35.8715 -0.705396 -83.5756
rradius 27.7129
rwrist -9.90461
rhand -21.6274 -22.2626
rfingers 7.12502
rthumb 4.76852 -52.1889
lclavicle 3.31473e-014 -1.19271e-015
lhumerus -41.4396 5.63073 72.5797
lradius 23.6807
lwrist 40.4961
lhand -29.3127 -3.21413
lfingers 7.12502
lthumb -2.65371 26.7491
rfemur -42.1922 7.6308 18.169
rtibia 43.1169
rfoot -18.7675 -20.5881
rtoes -14.0782
lfemur -29.8683 -4.37099 -25.2183
ltibia 23.0986
lfoot -15.5999 13.965
ltoes -8.77204
112
root 20.4089 15.4193 22.7899 205.479 -5.83909 -182.604
lowerback -17.84 2.37313 0.150495
upperback -6.50293 2.16051 -0.942
thorax 3.0685 0.630642 -0.669124
lowerneck -16.8536 4.31194 5.68301
upperneck 24.8753 4.11615 -1.43975
head 10.994 1.95837 -0.936387
rclavicle -3.30728e-014 -5.1684e-015
rhumerus -35.7107 0.00251942 -84.0153
rradius 28.158
rwrist -10.1633
rhand -21.9902 -22.378
rfingers 7.12502
rthumb 4.41825 -52.3119
lclavicle -3.30728e-014 -5.1684e-015
lhumerus -41.4329 5.34079 73.2557
lradius 23.3297
lwrist 39.9488
lhand -28.377 -2.87551
lfingers 7.12502
lthumb -1.74999 27.0971
rfemur -42.2911 8.23777 17.9843
rtibia 43.0443
rfoot -18.6052 -20.5632
rtoes -13.9531
lfemur -29.757 -4.2694 -25.2476
ltibia 23.0513
lfoot -15.5554 14.4926
ltoes -8.75331
113
root 20.424 15.4223 22.8 205.446 -5.20694 -182.609
lowerback -17.6379 2.31107 0.296148
upperback -6.47648 2.06044 -0.922903
thorax 2.99476 0.58301 -0.755298
lowerneck -16.5546 4.69243 6.15146
upperneck 24.5783 4.64518 -1.77829
head 10.8703 2.20837 -1.06229
rclavicle 1.0958e-014 -3.97569e-016
rhumerus -35.567 0.711433 -84.4504
rradius 28.6431
rwrist -10.4603
rhand -22.2887 -22.4651
rfingers 7.12502
rthumb 4.13 -52.4048
lclavicle 1.0958e-014 -3.97569e-016
lhumerus -41.4154 4.92337 74.0177
lradius 23.0712
lwrist 39.4407
lhand -27.4287 -2.53582
lfingers 7.12502
lthumb -0.834163 27.4423
rfemur -42.3981 8.74188 17.8084
rtibia 42.9805
rfoot -18.4706 -20.4885
rtoes -13.8543
lfemur -29.6311 -4.15961 -25.301
ltibia 22.9472
lfoot -15.4866 14.9639
ltoes -8.76793
114
root 20.4398 15.4257 22.8083 205.427 -4.64862 -182.647
lowerback -17.4598 2.22681 0.413648
upperback -6.4593 1.93406 -0.904473
thorax 2.92156 0.521522 -0.830609
lowerneck -16.2139 5.07165 6.61392
upperneck 24.2811 5.17676 -2.12067
head 10.7442 2.45884 -1.18927
rclavicle -2.5022e-014 2.38542e-015
rhumerus -35.4561 1.40244 -84.8708
rradius 29.17
rwrist -10.8018
rhand -22.483 -22.582
rfingers 7.12502
rthumb 3.94233 -52.5253
lclavicle -2.5022e-014 2.38542e-015
lhumerus -41.3885 4.3761 74.8679
lradius 22.8963
lwrist 38.9785
lhand -26.4901 -2.23209
lfingers 7.12502
lthumb 0.0723997 27.7476
rfemur -42.4928 9.12971 17.6421
rtibia 42.9172
rfoot -18.3763 -20.3795
rtoes -13.78
lfemur -29.491 -4.04738 -25.3794
ltibia 22.7899
lfoot -15.4005 15.3548
ltoes -8.80154
115
root 20.4564 15.4296 22.8156 205.437 -4.16088 -182.711
lowerback -17.3206 2.1276 0.511586
upperback -6.4467 1.78949 -0.886722
thorax 2.86225 0.450275 -0.897942
lowerneck -15.8561 5.44709 7.04859
upperneck 23.9877 5.70902 -2.45169
head 10.6204 2.70915 -1.30812
rclavicle -3.51849e-014 -9.93923e-015
rhumerus -35.353 2.06782 -85.2706
rradius 29.7227
rwrist -11.1799
rhand -22.5707 -22.7101
rfingers 7.12502
rthumb 3.85767 -52.6549
lclavicle -3.51849e-014 -9.93923e-015
lhumerus -41.3251 3.70672 75.8039
lradius 22.7969
lwrist 38.5657
lhand -25.6041 -1.96316
lfingers 7.12502
lthumb 0.928153 28.0146
rfemur -42.5927 9.40289 17.4881
rtibia 42.8469
rfoot -18.3162 -20.2258
rtoes -13.7247
lfemur -29.3649 -3.92926 -25.4761
ltibia 22.5905
lfoot -15.2895 15.669
ltoes -8.88829
